<svg width="35" height="36" viewBox="0 0 35 36" fill="none" xmlns="http://www.w3.org/2000/svg">
<path d="M28.3066 16.9725C30.997 15.4093 32.3198 13.0335 32.3198 9.89159C32.3198 3.84069 28.0421 0 21.5532 0H0V3.95974H10.6768L10.6718 3.96492L21.3435 3.89245C25.4116 3.89245 27.9922 6.21654 27.9922 9.89159C27.9922 13.4062 25.3567 15.7303 21.3984 15.7303H0.279522V19.4053H23.405C27.6777 19.4053 30.1585 21.9986 30.1585 25.8393C30.1585 29.7317 27.4631 31.9471 23.405 31.9471L10.6817 31.8591V31.8539H0.00499147V35.8395H23.0856C30.3182 35.8395 34.4861 31.6831 34.4861 25.7875C34.4861 21.4654 32.165 18.2717 28.3116 16.9777L28.3066 16.9725Z" fill="#282829"/>
</svg>
